<svg id="svg" version="1.1" xmlns="http://www.w3.org/2000/svg" xmlns:xlink="http://www.w3.org/1999/xlink" width="400" height="400" viewBox="0, 0, 400,400"><g id="svgg"><path id="path0" d="M207.400 79.366 C 205.923 79.887,205.534 80.370,205.778 81.379 C 205.882 81.808,205.794 82.366,205.583 82.620 C 205.372 82.875,205.083 84.729,204.940 86.741 C 204.797 88.754,204.504 90.400,204.289 90.400 C 204.058 90.400,204.001 91.044,204.150 91.976 C 204.306 92.956,204.235 93.655,203.961 93.824 C 203.713 93.977,203.618 94.590,203.744 95.220 C 203.868 95.838,203.808 96.401,203.612 96.472 C 203.416 96.542,203.160 97.860,203.045 99.400 C 202.929 100.940,202.711 103.332,202.560 104.716 C 202.264 107.436,203.088 115.600,203.659 115.600 C 203.847 115.600,204.000 115.870,204.000 116.200 C 204.000 116.530,203.814 116.800,203.586 116.800 C 203.162 116.800,203.826 118.402,204.416 118.800 C 204.578 118.910,204.814 119.720,204.941 120.600 C 205.067 121.480,205.177 122.232,205.185 122.271 C 205.193 122.311,205.483 122.626,205.829 122.971 C 206.174 123.317,206.268 123.600,206.037 123.600 C 205.752 123.600,205.761 123.917,206.067 124.587 C 206.315 125.131,206.671 125.480,206.858 125.364 C 207.046 125.248,207.200 125.529,207.200 125.989 C 207.200 126.449,207.469 126.928,207.798 127.054 C 208.126 127.181,208.295 127.447,208.172 127.645 C 207.858 128.153,208.386 129.656,208.790 129.406 C 208.973 129.293,209.317 129.696,209.555 130.300 C 210.150 131.810,210.870 132.889,211.700 133.517 C 212.085 133.807,212.400 134.269,212.400 134.541 C 212.400 134.814,212.932 135.479,213.583 136.019 C 214.234 136.558,214.774 137.321,214.783 137.713 C 214.792 138.104,215.070 138.529,215.400 138.655 C 215.730 138.782,216.350 139.675,216.776 140.640 C 217.203 141.605,217.986 142.800,218.515 143.297 C 219.045 143.794,219.401 144.425,219.306 144.700 C 219.211 144.975,219.323 145.200,219.554 145.200 C 219.786 145.200,219.864 145.488,219.729 145.840 C 219.594 146.193,219.734 146.637,220.042 146.827 C 220.818 147.310,220.764 173.528,219.986 174.009 C 219.709 174.180,219.584 174.694,219.705 175.160 C 219.826 175.622,219.762 175.900,219.563 175.777 C 219.229 175.571,219.124 176.137,219.011 178.765 C 218.986 179.326,218.641 179.859,218.184 180.037 C 217.753 180.206,217.580 180.359,217.800 180.378 C 218.051 180.400,218.043 180.522,217.779 180.706 C 217.547 180.868,216.923 181.720,216.392 182.600 C 215.861 183.480,214.975 184.559,214.425 184.998 C 213.874 185.437,213.148 186.127,212.812 186.532 C 212.475 186.936,211.526 187.541,210.703 187.876 C 209.879 188.211,209.296 188.631,209.406 188.810 C 209.601 189.125,208.231 189.654,205.852 190.184 C 205.220 190.324,204.453 190.689,204.148 190.995 C 203.401 191.741,195.281 191.579,194.805 190.808 C 194.584 190.450,193.811 190.350,192.262 190.478 C 191.039 190.580,190.119 190.531,190.219 190.370 C 190.318 190.209,189.499 190.015,188.399 189.939 C 187.299 189.862,186.323 189.980,186.230 190.200 C 186.123 190.453,185.939 190.435,185.730 190.152 C 185.549 189.906,184.005 189.576,182.300 189.418 C 180.595 189.261,179.200 188.984,179.200 188.804 C 179.200 188.325,175.226 188.129,175.050 188.600 C 174.959 188.843,174.693 188.804,174.370 188.500 C 173.706 187.873,162.000 187.779,162.000 188.400 C 162.000 188.620,161.640 188.800,161.200 188.800 C 160.760 188.800,160.400 188.656,160.400 188.480 C 160.400 188.304,159.770 188.234,159.000 188.324 C 158.230 188.414,157.600 188.648,157.600 188.844 C 157.600 189.040,157.055 189.200,156.389 189.200 C 154.676 189.200,150.000 190.127,150.000 190.466 C 150.000 190.622,149.370 190.647,148.600 190.523 C 147.245 190.303,146.602 190.887,147.700 191.340 C 147.975 191.453,147.637 191.450,146.949 191.333 C 146.239 191.212,145.579 191.310,145.425 191.560 C 145.275 191.802,144.803 192.000,144.376 192.000 C 143.949 192.000,143.600 192.191,143.600 192.424 C 143.600 192.657,143.420 192.736,143.200 192.600 C 142.980 192.464,142.800 192.539,142.800 192.766 C 142.800 193.012,142.273 193.089,141.500 192.956 C 140.610 192.803,140.371 192.853,140.743 193.116 C 141.138 193.396,140.724 193.634,139.212 193.997 C 138.072 194.271,137.050 194.726,136.942 195.008 C 136.833 195.290,136.144 195.634,135.411 195.772 C 134.677 195.909,133.981 196.273,133.863 196.580 C 133.733 196.918,133.324 197.053,132.824 196.922 C 132.256 196.774,132.000 196.898,132.000 197.322 C 132.000 197.676,131.504 198.045,130.829 198.194 C 130.185 198.335,129.240 198.852,128.729 199.342 C 128.218 199.833,127.046 200.564,126.124 200.967 C 124.406 201.718,123.784 202.516,124.275 203.336 C 124.428 203.591,124.249 203.553,123.877 203.251 C 123.290 202.775,123.200 202.794,123.200 203.394 C 123.200 203.852,122.992 204.006,122.585 203.850 C 122.235 203.715,121.872 203.869,121.742 204.207 C 121.617 204.533,121.253 204.800,120.934 204.800 C 120.614 204.800,120.464 204.980,120.600 205.200 C 120.736 205.420,120.582 205.600,120.258 205.600 C 119.933 205.600,119.158 206.140,118.535 206.800 C 117.912 207.460,117.177 208.000,116.901 208.000 C 116.626 208.000,116.400 208.239,116.400 208.530 C 116.400 209.118,114.934 210.576,114.000 210.918 C 113.644 211.048,113.602 211.150,113.896 211.168 C 114.519 211.208,113.233 212.800,112.579 212.800 C 112.335 212.800,111.880 213.295,111.568 213.900 C 111.256 214.505,110.336 215.598,109.523 216.328 C 108.675 217.091,108.137 217.893,108.260 218.213 C 108.378 218.519,108.007 219.202,107.437 219.731 C 106.867 220.259,106.400 220.890,106.400 221.132 C 106.400 221.374,105.860 222.125,105.200 222.800 C 104.540 223.475,104.000 224.251,104.000 224.525 C 104.000 224.798,103.628 225.341,103.173 225.730 C 102.718 226.120,102.417 226.651,102.504 226.911 C 102.590 227.170,102.332 227.736,101.930 228.167 C 101.529 228.598,101.200 229.212,101.200 229.531 C 101.200 229.851,100.885 230.351,100.500 230.643 C 100.028 231.002,99.972 231.179,100.329 231.187 C 100.726 231.197,100.702 231.355,100.229 231.828 C 99.884 232.173,99.481 232.937,99.333 233.524 C 99.186 234.111,98.809 234.848,98.497 235.161 C 98.173 235.484,97.999 236.212,98.093 236.849 C 98.186 237.489,98.052 238.048,97.779 238.153 C 97.516 238.254,97.180 238.981,97.032 239.768 C 96.885 240.556,96.571 241.200,96.336 241.200 C 96.095 241.200,95.981 241.692,96.075 242.330 C 96.170 242.978,96.003 243.682,95.681 243.982 C 95.215 244.418,95.211 244.561,95.661 244.846 C 95.975 245.045,96.013 245.190,95.753 245.194 C 95.507 245.197,95.205 245.946,95.083 246.858 C 94.961 247.769,94.694 248.624,94.489 248.758 C 94.019 249.065,93.567 252.384,93.375 256.954 C 93.293 258.909,93.130 260.604,93.013 260.721 C 92.698 261.035,92.754 265.821,93.076 266.143 C 93.228 266.294,93.305 267.301,93.248 268.380 C 93.178 269.693,93.367 270.683,93.818 271.371 C 94.224 271.991,94.315 272.400,94.046 272.400 C 93.801 272.400,93.600 272.760,93.600 273.200 C 93.600 273.640,93.777 274.000,93.992 274.000 C 94.229 274.000,94.284 274.738,94.129 275.863 C 93.948 277.188,94.003 277.645,94.321 277.449 C 94.618 277.265,94.859 277.852,95.036 279.186 C 95.183 280.294,95.443 281.200,95.614 281.200 C 95.785 281.200,95.831 281.560,95.716 282.000 C 95.599 282.447,95.704 282.800,95.953 282.800 C 96.539 282.800,96.533 283.889,95.946 284.085 C 95.646 284.185,95.706 284.449,96.125 284.868 C 96.473 285.216,96.853 286.287,96.968 287.248 C 97.084 288.209,97.415 289.176,97.704 289.398 C 97.993 289.619,98.162 290.129,98.079 290.532 C 97.826 291.765,98.387 293.465,98.821 292.779 C 99.112 292.320,99.189 292.373,99.194 293.033 C 99.197 293.492,99.335 294.002,99.500 294.167 C 99.665 294.332,99.815 294.587,99.833 294.733 C 99.980 295.939,100.579 297.200,101.004 297.200 C 101.289 297.200,101.702 297.717,101.922 298.348 C 102.142 298.980,102.723 299.870,103.214 300.327 C 103.704 300.784,104.321 301.572,104.585 302.079 C 104.849 302.585,105.289 302.951,105.562 302.890 C 105.836 302.830,105.962 302.938,105.843 303.131 C 105.569 303.573,109.246 307.034,110.366 307.389 C 110.825 307.535,111.200 307.841,111.200 308.070 C 111.200 308.298,111.455 308.388,111.767 308.268 C 112.079 308.148,112.433 308.309,112.554 308.625 C 112.676 308.941,113.146 309.200,113.600 309.200 C 114.054 309.200,114.524 309.459,114.646 309.775 C 114.767 310.091,115.098 310.261,115.381 310.152 C 115.665 310.043,116.020 310.274,116.170 310.666 C 116.403 311.272,116.498 311.291,116.815 310.789 C 117.128 310.295,117.189 310.313,117.194 310.900 C 117.197 311.285,117.335 311.570,117.500 311.533 C 118.208 311.374,120.800 312.124,120.800 312.487 C 120.800 312.706,121.058 312.786,121.374 312.665 C 121.690 312.544,122.005 312.612,122.074 312.816 C 122.143 313.020,123.531 313.536,125.157 313.963 C 126.784 314.390,128.251 314.959,128.417 315.228 C 128.583 315.497,129.007 315.606,129.360 315.471 C 129.712 315.336,130.000 315.379,130.000 315.568 C 130.000 315.757,130.617 316.027,131.371 316.168 C 132.125 316.310,132.813 316.640,132.901 316.902 C 132.996 317.188,133.889 317.382,135.130 317.387 C 136.268 317.391,137.200 317.555,137.200 317.752 C 137.200 317.949,138.405 318.013,139.879 317.895 C 141.352 317.776,142.951 317.829,143.433 318.013 C 144.111 318.270,151.011 318.650,157.524 318.789 C 157.812 318.795,157.922 319.002,157.770 319.249 C 157.570 319.573,158.617 319.652,161.546 319.535 C 163.776 319.445,165.600 319.499,165.600 319.655 C 165.600 319.811,167.040 319.998,168.801 320.070 C 170.561 320.141,172.001 320.065,172.001 319.900 C 172.000 319.735,172.360 319.600,172.800 319.600 C 173.240 319.600,173.600 319.789,173.600 320.020 C 173.600 320.282,174.989 320.444,177.300 320.450 C 183.756 320.468,189.363 320.851,188.760 321.233 C 188.393 321.466,188.923 321.590,190.300 321.594 C 191.922 321.599,192.400 321.461,192.400 320.987 C 192.400 320.651,192.669 320.272,192.998 320.146 C 193.326 320.019,193.501 319.763,193.386 319.577 C 193.270 319.390,193.496 318.863,193.888 318.406 C 194.280 317.948,194.620 317.445,194.644 317.287 C 194.851 315.940,195.367 314.344,195.652 314.168 C 196.137 313.868,196.090 310.800,195.600 310.800 C 195.380 310.800,195.200 310.620,195.200 310.400 C 195.200 309.741,193.690 308.438,192.613 308.168 C 192.059 308.028,191.720 307.729,191.860 307.503 C 192.028 307.232,191.349 307.155,189.868 307.278 C 188.476 307.393,187.541 307.300,187.411 307.032 C 187.271 306.746,187.119 306.775,186.961 307.117 C 186.804 307.456,186.564 307.503,186.261 307.252 C 185.713 306.799,182.142 306.525,181.760 306.906 C 181.614 307.052,181.203 307.019,180.847 306.832 C 180.275 306.531,173.852 306.070,169.400 306.009 C 168.156 305.993,167.934 305.893,168.400 305.562 C 168.834 305.254,167.977 305.193,165.300 305.342 C 162.903 305.476,161.600 305.403,161.600 305.138 C 161.600 304.887,160.624 304.776,159.100 304.853 C 157.725 304.922,156.416 304.863,156.192 304.723 C 155.629 304.369,151.272 304.195,150.953 304.513 C 150.811 304.656,150.403 304.621,150.047 304.436 C 149.691 304.252,148.034 304.017,146.364 303.915 C 143.434 303.735,140.381 302.206,141.925 301.692 C 142.186 301.605,142.400 301.298,142.400 301.009 C 142.400 300.273,143.327 300.000,145.833 300.000 C 147.025 300.000,148.000 299.820,148.000 299.600 C 148.000 299.380,148.270 299.200,148.600 299.200 C 148.930 299.200,149.200 299.363,149.200 299.563 C 149.200 299.762,149.560 299.831,150.000 299.716 C 150.440 299.601,150.800 299.346,150.800 299.149 C 150.800 298.952,151.565 298.897,152.500 299.028 C 153.615 299.183,154.016 299.135,153.666 298.888 C 152.972 298.398,154.462 297.869,157.100 297.668 C 157.603 297.630,158.000 297.335,158.000 297.000 C 158.000 296.670,158.348 296.400,158.773 296.400 C 159.547 296.400,163.744 294.430,163.011 294.410 C 162.672 294.401,164.264 293.101,164.800 292.949 C 166.180 292.558,166.800 292.242,166.800 291.930 C 166.800 291.722,166.592 291.681,166.338 291.838 C 166.052 292.015,165.985 291.948,166.162 291.662 C 166.319 291.408,166.673 291.200,166.948 291.200 C 167.671 291.200,169.260 289.621,168.985 289.176 C 168.857 288.969,169.039 288.800,169.389 288.800 C 169.739 288.800,170.141 288.485,170.282 288.100 C 170.423 287.715,170.874 287.040,171.285 286.600 C 173.301 284.440,174.025 283.408,173.618 283.273 C 173.376 283.192,173.727 282.564,174.399 281.877 C 175.096 281.164,175.524 280.378,175.396 280.046 C 175.273 279.726,175.369 279.343,175.608 279.195 C 175.847 279.047,176.321 277.863,176.660 276.563 C 176.999 275.263,177.446 274.096,177.652 273.968 C 178.244 273.602,178.758 269.656,178.238 269.463 C 177.935 269.350,177.954 269.137,178.300 268.770 C 178.959 268.071,178.975 262.335,178.320 261.680 C 177.993 261.353,177.970 261.070,178.249 260.791 C 178.741 260.299,178.472 258.000,177.923 258.000 C 177.698 258.000,177.651 257.477,177.811 256.750 C 177.989 255.938,177.916 255.396,177.603 255.202 C 177.337 255.038,176.998 254.309,176.850 253.582 C 176.556 252.146,175.620 251.477,175.568 252.667 C 175.546 253.189,175.473 253.237,175.313 252.835 C 175.190 252.524,175.396 252.046,175.769 251.773 C 176.351 251.348,176.368 251.201,175.885 250.750 C 175.575 250.461,175.405 249.903,175.507 249.512 C 175.629 249.046,175.470 248.800,175.047 248.800 C 174.691 248.800,174.378 248.530,174.350 248.200 C 174.261 247.136,174.198 247.018,173.091 245.842 C 172.491 245.204,172.000 244.446,172.000 244.156 C 172.000 243.866,171.631 243.431,171.181 243.190 C 170.730 242.949,170.195 242.312,169.991 241.776 C 169.787 241.239,169.341 240.800,169.000 240.800 C 168.659 240.800,168.209 240.350,168.000 239.800 C 167.791 239.250,167.358 238.800,167.037 238.800 C 166.717 238.800,166.072 238.263,165.605 237.607 C 165.138 236.951,164.631 236.433,164.478 236.455 C 163.689 236.568,163.467 236.340,164.000 235.962 C 164.459 235.635,164.334 235.594,163.466 235.784 C 162.776 235.935,162.427 235.880,162.573 235.644 C 162.851 235.194,162.145 234.677,161.015 234.501 C 160.583 234.434,159.827 234.001,159.335 233.539 C 158.830 233.065,158.170 232.802,157.820 232.937 C 157.479 233.068,157.200 233.013,157.200 232.814 C 157.200 232.616,156.795 232.316,156.300 232.147 C 155.118 231.743,154.960 231.710,153.900 231.644 C 153.150 231.597,153.100 231.517,153.600 231.161 C 154.054 230.838,153.840 230.784,152.724 230.938 C 151.912 231.050,151.189 230.966,151.117 230.750 C 151.045 230.535,150.044 230.337,148.893 230.311 C 147.742 230.285,146.800 230.104,146.800 229.908 C 146.800 229.713,146.590 229.683,146.333 229.841 C 146.077 230.000,144.277 230.094,142.333 230.051 C 140.390 230.009,138.799 230.114,138.797 230.287 C 138.795 230.459,137.780 230.630,136.541 230.667 C 135.302 230.703,134.179 230.910,134.044 231.125 C 133.910 231.341,133.049 231.719,132.131 231.966 C 131.213 232.212,130.372 232.636,130.263 232.907 C 130.108 233.289,130.056 233.290,130.032 232.913 C 130.014 232.644,129.731 232.528,129.402 232.654 C 129.074 232.781,128.894 233.028,129.003 233.205 C 129.112 233.381,128.841 233.431,128.401 233.316 C 127.942 233.196,127.600 233.304,127.600 233.568 C 127.600 233.821,126.816 234.364,125.858 234.775 C 124.900 235.186,124.005 235.810,123.870 236.161 C 123.735 236.512,123.356 236.800,123.027 236.800 C 122.697 236.800,122.235 237.160,122.000 237.600 C 121.765 238.040,121.318 238.400,121.009 238.400 C 120.699 238.400,120.165 238.800,119.823 239.289 C 119.480 239.778,119.200 239.979,119.200 239.736 C 119.200 239.492,118.840 239.199,118.400 239.084 C 116.502 238.588,118.468 234.718,120.895 234.173 C 121.613 234.012,121.975 233.802,121.700 233.707 C 120.928 233.439,121.109 232.800,121.957 232.800 C 122.374 232.800,122.833 232.490,122.979 232.111 C 123.162 231.634,123.332 231.566,123.532 231.890 C 123.722 232.197,124.024 232.230,124.411 231.985 C 124.735 231.780,124.825 231.609,124.611 231.606 C 123.751 231.593,125.939 230.448,127.320 230.189 C 128.183 230.027,128.800 229.679,128.800 229.355 C 128.800 229.044,129.200 228.800,129.711 228.800 C 130.212 228.800,131.022 228.520,131.511 228.177 C 132.194 227.699,132.403 227.676,132.413 228.077 C 132.421 228.421,132.609 228.358,132.962 227.893 C 133.281 227.472,133.762 227.287,134.149 227.436 C 134.507 227.573,134.800 227.508,134.800 227.292 C 134.800 227.064,135.598 226.974,136.700 227.079 C 137.935 227.197,138.415 227.131,138.072 226.889 C 137.721 226.642,138.640 226.443,140.820 226.294 C 144.572 226.036,150.287 226.375,149.579 226.813 C 149.313 226.978,149.814 227.175,150.718 227.261 C 151.606 227.345,152.247 227.276,152.143 227.107 C 152.038 226.938,152.128 226.800,152.343 226.800 C 152.558 226.800,152.793 226.972,152.867 227.182 C 152.940 227.391,154.304 227.886,155.899 228.282 C 157.880 228.773,158.800 229.190,158.805 229.600 C 158.811 230.133,158.855 230.133,159.200 229.600 C 159.413 229.270,159.591 229.204,159.594 229.453 C 159.599 229.835,160.554 230.334,161.687 230.546 C 161.845 230.576,162.305 230.870,162.709 231.200 C 163.113 231.530,164.063 232.146,164.822 232.569 C 165.580 232.992,166.340 233.569,166.511 233.852 C 166.681 234.135,167.086 234.265,167.411 234.141 C 167.735 234.016,168.000 234.114,168.000 234.357 C 168.000 235.025,169.384 236.272,169.925 236.092 C 170.187 236.004,170.400 236.295,170.400 236.740 C 170.400 237.195,170.749 237.657,171.200 237.800 C 171.640 237.940,172.000 238.195,172.000 238.369 C 172.000 238.875,173.919 240.800,174.424 240.800 C 174.678 240.800,174.783 241.067,174.658 241.394 C 174.524 241.743,174.753 242.161,175.215 242.408 C 175.647 242.639,176.000 243.083,176.000 243.394 C 176.000 243.706,176.315 244.144,176.700 244.368 C 177.254 244.691,177.275 244.781,176.800 244.801 C 176.295 244.822,176.304 244.905,176.859 245.327 C 177.221 245.602,177.813 246.535,178.174 247.400 C 178.535 248.265,179.049 249.111,179.316 249.280 C 179.694 249.520,179.693 249.589,179.313 249.594 C 179.044 249.597,178.928 249.869,179.054 250.198 C 179.181 250.526,179.445 250.696,179.642 250.574 C 179.839 250.452,180.000 250.636,180.000 250.982 C 180.000 251.328,180.170 251.923,180.378 252.305 C 180.586 252.687,180.864 253.675,180.996 254.500 C 181.128 255.325,181.405 256.000,181.610 256.000 C 181.822 256.000,181.887 256.827,181.759 257.900 C 181.592 259.308,181.645 259.645,181.961 259.200 C 182.271 258.764,182.389 260.268,182.394 264.700 C 182.397 268.055,182.240 270.800,182.044 270.800 C 181.848 270.800,181.615 271.417,181.527 272.172 C 181.439 272.927,181.510 273.456,181.684 273.348 C 181.858 273.241,182.000 273.343,182.000 273.576 C 182.000 273.809,181.801 274.000,181.557 274.000 C 181.314 274.000,181.213 274.257,181.333 274.571 C 181.454 274.885,181.295 275.355,180.981 275.616 C 180.666 275.877,180.487 276.218,180.583 276.373 C 180.862 276.824,179.839 279.906,179.429 279.850 C 179.025 279.796,178.323 281.950,178.533 282.600 C 178.705 283.131,177.348 284.408,176.974 284.067 C 176.813 283.920,176.779 284.193,176.897 284.674 C 177.029 285.213,176.899 285.630,176.556 285.762 C 176.250 285.879,176.000 286.244,176.000 286.573 C 176.000 286.903,175.670 287.348,175.267 287.564 C 174.864 287.780,174.099 288.776,173.568 289.778 C 172.984 290.879,172.324 291.600,171.901 291.600 C 171.515 291.600,171.200 291.870,171.200 292.200 C 171.200 292.530,170.936 292.800,170.613 292.800 C 170.255 292.800,170.115 293.035,170.255 293.400 C 170.457 293.925,170.307 294.028,169.392 293.992 C 169.278 293.987,168.794 294.347,168.317 294.792 C 167.840 295.236,167.303 295.600,167.125 295.600 C 166.946 295.600,166.800 295.832,166.800 296.116 C 166.800 296.399,165.820 297.063,164.622 297.590 C 163.425 298.117,162.535 298.695,162.646 298.874 C 162.757 299.054,162.550 299.200,162.188 299.200 C 161.825 299.200,161.173 299.605,160.738 300.100 C 160.219 300.692,159.880 300.836,159.748 300.522 C 159.495 299.917,158.400 300.311,158.400 301.009 C 158.400 301.371,159.187 301.573,160.963 301.666 C 162.373 301.740,163.442 301.665,163.339 301.500 C 163.237 301.335,163.613 301.200,164.176 301.200 C 164.739 301.200,165.200 301.404,165.200 301.653 C 165.200 301.966,166.124 302.046,168.213 301.912 C 169.964 301.799,171.327 301.882,171.467 302.109 C 171.607 302.334,172.876 302.416,174.463 302.303 C 175.978 302.194,177.315 302.262,177.433 302.453 C 177.551 302.644,178.526 302.800,179.600 302.800 C 180.674 302.800,181.664 302.980,181.800 303.200 C 181.936 303.420,182.262 303.597,182.524 303.594 C 182.810 303.590,182.761 303.433,182.400 303.200 C 181.952 302.911,182.155 302.818,183.200 302.834 C 184.344 302.852,184.454 302.919,183.800 303.200 C 183.196 303.459,183.460 303.551,184.876 303.572 C 185.908 303.587,186.864 303.419,187.001 303.199 C 187.257 302.785,189.244 303.100,189.600 303.610 C 189.935 304.091,192.799 304.278,192.806 303.820 C 192.809 303.589,192.969 303.648,193.161 303.951 C 193.353 304.254,193.692 304.391,193.913 304.254 C 194.134 304.117,195.127 304.805,196.120 305.784 C 197.958 307.596,199.104 307.831,201.600 306.911 C 201.930 306.789,202.767 306.726,203.460 306.772 C 204.152 306.817,204.828 306.679,204.960 306.465 C 205.092 306.250,205.561 306.169,206.000 306.284 C 206.478 306.409,206.800 306.296,206.800 306.004 C 206.800 305.711,207.068 305.617,207.468 305.771 C 207.835 305.912,208.240 305.864,208.368 305.664 C 208.496 305.464,209.410 305.202,210.400 305.080 C 212.507 304.822,213.597 304.446,214.329 303.722 C 214.940 303.119,215.600 303.036,215.600 303.563 C 215.600 303.762,215.975 303.827,216.434 303.707 C 216.979 303.565,217.106 303.389,216.801 303.200 C 216.534 303.036,217.163 302.708,218.267 302.438 C 219.330 302.177,220.515 301.870,220.900 301.755 C 221.358 301.618,221.600 301.763,221.600 302.173 C 221.600 302.518,221.851 302.800,222.157 302.800 C 222.464 302.800,222.817 303.067,222.942 303.393 C 223.072 303.731,223.435 303.885,223.785 303.750 C 224.140 303.614,224.400 303.730,224.400 304.024 C 224.400 304.304,224.502 304.431,224.627 304.306 C 224.752 304.182,225.392 304.606,226.050 305.249 C 226.708 305.892,227.407 306.319,227.603 306.198 C 227.799 306.077,228.158 306.348,228.400 306.800 C 228.642 307.252,229.000 307.523,229.196 307.402 C 229.392 307.281,229.878 307.532,230.276 307.959 C 230.674 308.386,231.495 308.859,232.100 309.011 C 232.705 309.163,233.200 309.556,233.200 309.886 C 233.200 310.239,233.433 310.396,233.767 310.268 C 234.079 310.148,234.437 310.321,234.564 310.651 C 234.691 310.981,234.948 311.156,235.136 311.040 C 235.324 310.924,236.045 311.384,236.739 312.062 C 237.486 312.793,238.005 313.072,238.012 312.747 C 238.020 312.378,238.157 312.428,238.432 312.900 C 238.656 313.285,239.101 313.600,239.420 313.600 C 239.739 313.600,240.000 313.780,240.000 314.000 C 240.000 314.220,240.270 314.400,240.600 314.400 C 240.930 314.400,241.200 314.670,241.200 315.000 C 241.200 315.934,263.510 315.901,263.868 314.966 C 264.064 314.456,264.177 314.437,264.450 314.866 C 264.709 315.275,264.789 315.236,264.794 314.700 C 264.797 314.315,265.081 314.000,265.424 314.000 C 265.767 314.000,265.943 313.831,265.815 313.625 C 265.688 313.418,265.885 313.080,266.254 312.874 C 267.369 312.250,267.262 307.799,266.113 306.994 C 265.629 306.655,265.326 306.137,265.439 305.842 C 265.572 305.497,265.061 305.071,264.009 304.650 C 263.109 304.290,262.282 303.758,262.170 303.467 C 262.059 303.176,260.987 302.502,259.788 301.969 C 258.589 301.436,257.606 300.865,257.604 300.700 C 257.602 300.535,257.320 300.400,256.977 300.400 C 256.635 300.400,255.801 299.815,255.124 299.100 C 254.215 298.140,253.957 298.009,254.138 298.600 C 254.354 299.304,254.307 299.292,253.743 298.500 C 253.391 298.005,252.854 297.600,252.551 297.600 C 252.248 297.600,252.000 297.420,252.000 297.200 C 252.000 296.980,251.736 296.800,251.414 296.800 C 251.092 296.800,250.635 296.440,250.400 296.000 C 250.165 295.560,249.618 295.200,249.186 295.200 C 248.754 295.200,248.400 294.951,248.400 294.647 C 248.400 294.342,248.064 294.005,247.653 293.898 C 245.440 293.319,245.647 283.648,247.904 282.169 C 248.437 281.819,248.709 281.362,248.549 281.082 C 248.396 280.817,248.410 280.724,248.578 280.876 C 249.202 281.437,249.939 280.246,249.492 279.400 C 249.117 278.691,249.143 278.661,249.717 279.134 C 250.452 279.741,251.200 279.447,251.200 278.553 C 251.200 278.223,251.378 278.063,251.595 278.197 C 251.822 278.337,251.889 278.177,251.753 277.821 C 251.603 277.431,251.736 277.200,252.112 277.200 C 252.440 277.200,253.008 276.570,253.373 275.800 C 253.739 275.030,254.296 274.400,254.611 274.400 C 254.927 274.400,255.302 273.933,255.445 273.362 C 255.610 272.706,255.813 272.497,255.997 272.796 C 256.207 273.135,256.354 273.097,256.522 272.659 C 256.650 272.325,256.540 271.964,256.278 271.857 C 256.015 271.751,256.112 271.649,256.492 271.632 C 256.885 271.614,257.295 271.162,257.438 270.589 C 257.578 270.034,258.025 269.401,258.432 269.183 C 258.839 268.965,259.384 268.079,259.643 267.213 C 259.903 266.347,260.300 265.675,260.526 265.719 C 260.752 265.764,261.279 264.900,261.698 263.800 C 262.117 262.700,262.738 261.644,263.078 261.453 C 263.589 261.167,263.601 261.048,263.150 260.769 C 262.700 260.491,262.718 260.341,263.254 259.916 C 263.612 259.632,264.016 258.918,264.153 258.328 C 264.289 257.738,264.668 256.989,264.994 256.663 C 265.321 256.337,265.635 255.469,265.694 254.735 C 265.752 254.001,265.930 253.302,266.090 253.183 C 266.385 252.961,266.455 252.691,266.994 249.707 C 267.173 248.717,267.469 248.119,267.708 248.267 C 267.959 248.422,268.044 248.142,267.929 247.538 C 267.825 246.999,267.962 246.351,268.233 246.098 C 268.504 245.845,268.853 244.100,269.010 242.219 C 269.166 240.339,269.479 238.800,269.703 238.800 C 269.959 238.800,270.028 237.985,269.887 236.623 C 269.736 235.154,269.815 234.373,270.131 234.223 C 270.480 234.057,270.472 233.940,270.100 233.767 C 269.506 233.489,269.426 232.400,270.000 232.400 C 270.561 232.400,270.530 223.728,269.968 223.380 C 269.690 223.208,269.635 222.398,269.814 221.098 C 270.075 219.197,270.044 219.095,269.265 219.299 C 268.810 219.418,268.385 219.364,268.319 219.179 C 268.254 218.994,267.300 218.803,266.200 218.755 C 263.597 218.641,262.943 218.423,263.666 217.911 C 264.023 217.659,263.702 217.603,262.700 217.742 C 261.784 217.869,261.200 217.786,261.200 217.528 C 261.200 217.296,260.880 217.190,260.488 217.293 C 260.097 217.395,259.533 217.219,259.236 216.900 C 258.787 216.420,258.638 216.413,258.354 216.861 C 258.124 217.223,258.010 217.244,258.006 216.925 C 258.003 216.663,257.190 216.328,256.200 216.179 C 255.210 216.031,254.400 215.730,254.400 215.512 C 254.400 215.293,254.130 215.218,253.800 215.345 C 253.470 215.471,253.200 215.380,253.200 215.141 C 253.200 214.902,252.840 214.801,252.400 214.916 C 251.960 215.031,251.600 214.975,251.600 214.791 C 251.600 214.608,250.565 214.231,249.300 213.953 C 248.035 213.676,246.896 213.297,246.768 213.111 C 246.640 212.925,246.220 212.894,245.834 213.042 C 245.281 213.254,245.246 213.382,245.666 213.644 C 245.969 213.833,245.508 213.871,244.600 213.732 C 242.577 213.422,242.299 213.200,243.933 213.200 C 245.646 213.200,245.542 212.500,243.780 212.170 C 243.000 212.023,242.111 211.654,241.807 211.349 C 241.502 211.045,240.791 210.757,240.226 210.710 C 239.662 210.664,239.200 210.479,239.200 210.300 C 239.200 210.121,238.898 209.859,238.528 209.717 C 237.609 209.364,234.800 206.599,234.800 206.047 C 234.800 205.801,234.609 205.600,234.376 205.600 C 234.143 205.600,234.064 205.420,234.200 205.200 C 234.336 204.980,234.257 204.800,234.024 204.800 C 233.791 204.800,233.600 204.609,233.600 204.376 C 233.600 204.143,233.808 204.081,234.062 204.238 C 234.348 204.415,234.415 204.348,234.238 204.062 C 234.081 203.808,233.733 203.600,233.464 203.600 C 232.894 203.600,231.864 201.320,231.975 200.300 C 232.016 199.915,231.885 199.600,231.683 199.600 C 231.482 199.600,230.919 198.261,230.433 196.625 C 229.948 194.989,229.336 193.563,229.075 193.457 C 228.743 193.321,228.759 193.254,229.129 193.232 C 229.529 193.208,229.505 193.048,229.029 192.571 C 228.683 192.226,228.373 191.461,228.339 190.871 C 228.306 190.282,228.249 189.530,228.214 189.200 C 228.106 188.186,228.837 187.600,230.210 187.600 C 231.699 187.600,232.336 188.733,232.658 191.957 C 232.754 192.924,232.999 194.025,233.203 194.405 C 233.406 194.784,233.462 195.204,233.329 195.338 C 233.195 195.472,233.381 195.695,233.743 195.833 C 234.104 195.972,234.400 196.494,234.400 196.994 C 234.400 197.493,234.668 198.124,234.996 198.396 C 235.323 198.668,235.502 199.035,235.393 199.211 C 235.284 199.387,235.421 199.623,235.698 199.734 C 236.076 199.887,236.080 199.945,235.713 199.968 C 235.436 199.986,235.330 200.274,235.468 200.634 C 235.654 201.119,235.785 201.149,236.024 200.761 C 236.225 200.437,236.436 200.787,236.615 201.739 C 236.770 202.568,237.225 203.399,237.647 203.625 C 238.061 203.847,238.400 204.247,238.400 204.514 C 238.401 205.150,240.217 207.256,240.658 207.132 C 240.846 207.079,241.576 207.343,242.280 207.718 C 242.984 208.093,243.884 208.403,244.280 208.406 C 244.826 208.411,244.871 208.494,244.468 208.750 C 243.994 209.050,244.846 209.315,247.800 209.785 C 248.020 209.820,248.425 209.681,248.700 209.476 C 249.047 209.217,249.200 209.296,249.200 209.733 C 249.200 210.147,249.715 210.457,250.700 210.634 C 251.525 210.783,252.419 211.078,252.687 211.290 C 252.954 211.502,253.403 211.599,253.683 211.506 C 253.963 211.412,254.400 211.543,254.653 211.795 C 254.905 212.048,256.437 212.494,258.056 212.787 C 259.675 213.079,261.209 213.574,261.464 213.886 C 262.643 215.330,283.850 215.433,284.333 213.997 C 284.406 213.779,284.901 213.711,285.433 213.844 C 286.020 213.991,286.400 213.912,286.400 213.643 C 286.400 213.400,286.673 213.200,287.006 213.200 C 288.287 213.200,290.800 212.180,290.800 211.660 C 290.800 211.336,291.047 211.209,291.408 211.348 C 292.299 211.690,296.400 208.044,296.400 206.911 C 296.400 206.630,296.591 206.400,296.824 206.400 C 297.057 206.400,297.142 206.229,297.012 206.020 C 296.883 205.811,297.143 205.445,297.589 205.206 C 298.035 204.967,298.400 204.508,298.400 204.186 C 298.400 203.864,298.576 203.600,298.791 203.600 C 299.671 203.600,298.234 201.627,297.186 201.397 C 296.579 201.264,295.749 200.774,295.341 200.309 C 294.858 199.757,294.809 199.583,295.200 199.808 C 295.766 200.134,295.282 199.282,294.400 198.400 C 292.522 196.522,292.839 193.038,294.837 193.611 C 295.557 193.817,295.925 193.803,295.784 193.574 C 295.657 193.368,295.715 193.200,295.912 193.200 C 296.377 193.200,297.200 195.008,297.200 196.031 C 297.200 196.468,297.485 196.935,297.834 197.068 C 298.344 197.264,298.363 197.377,297.934 197.650 C 297.519 197.912,297.549 197.989,298.067 197.994 C 298.433 197.997,298.800 198.201,298.882 198.447 C 299.293 199.680,302.172 199.036,302.669 197.600 C 302.936 196.830,303.170 196.470,303.190 196.800 C 303.217 197.276,303.309 197.254,303.634 196.697 C 303.859 196.310,303.933 195.815,303.798 195.597 C 303.663 195.379,303.756 195.200,304.003 195.200 C 304.281 195.200,304.350 194.873,304.184 194.350 C 304.020 193.834,304.113 193.378,304.419 193.188 C 304.791 192.959,304.644 192.617,303.862 191.892 C 303.278 191.351,302.800 190.714,302.800 190.477 C 302.800 190.240,302.427 189.784,301.972 189.465 C 301.367 189.042,301.286 188.827,301.672 188.670 C 302.018 188.528,301.890 188.359,301.300 188.180 C 300.805 188.030,300.400 187.640,300.400 187.314 C 300.400 186.988,299.885 186.240,299.256 185.652 C 298.627 185.065,297.985 184.183,297.829 183.692 C 297.673 183.201,297.288 182.800,296.973 182.800 C 296.658 182.800,296.400 182.440,296.400 182.000 C 296.400 181.560,296.238 181.200,296.040 181.200 C 295.842 181.200,295.512 180.525,295.307 179.700 C 295.102 178.875,294.724 178.245,294.467 178.300 C 294.210 178.355,293.994 178.085,293.987 177.700 C 293.980 177.315,293.716 176.658,293.400 176.241 C 293.084 175.824,292.920 175.329,293.036 175.141 C 293.152 174.953,292.952 174.800,292.590 174.800 C 292.229 174.800,292.003 174.591,292.088 174.336 C 292.173 174.080,291.832 173.428,291.329 172.885 C 290.826 172.343,290.503 171.757,290.610 171.584 C 290.717 171.410,290.579 171.177,290.302 171.066 C 289.950 170.924,289.976 170.854,290.389 170.832 C 290.768 170.811,290.527 170.388,289.712 169.644 C 289.016 169.008,288.542 168.391,288.660 168.274 C 289.016 167.917,288.433 166.562,287.411 165.374 C 286.880 164.756,286.536 164.104,286.646 163.926 C 286.900 163.514,285.810 161.924,285.491 162.242 C 285.361 162.372,285.348 162.056,285.462 161.540 C 285.627 160.792,285.582 160.722,285.241 161.200 C 284.869 161.720,284.811 161.709,284.806 161.116 C 284.803 160.739,284.435 160.091,283.989 159.676 C 283.495 159.216,283.278 158.663,283.432 158.260 C 283.572 157.897,283.504 157.600,283.282 157.600 C 283.060 157.600,282.683 157.039,282.443 156.352 C 282.086 155.328,281.846 155.145,281.104 155.332 C 280.337 155.526,280.295 155.487,280.827 155.080 C 281.377 154.658,281.295 154.444,280.154 153.316 C 279.326 152.498,278.785 152.208,278.659 152.516 C 278.545 152.798,278.450 152.721,278.432 152.332 C 278.411 151.897,277.702 151.433,276.400 151.000 C 275.300 150.635,274.400 150.189,274.400 150.011 C 274.400 149.483,273.485 149.272,269.132 148.793 C 266.865 148.543,264.894 148.152,264.753 147.925 C 264.591 147.661,263.620 147.612,262.093 147.789 C 260.436 147.982,259.601 147.925,259.404 147.606 C 259.247 147.352,258.372 147.180,257.459 147.224 C 256.547 147.268,255.479 147.169,255.088 147.004 C 254.696 146.840,253.848 146.810,253.203 146.939 C 252.558 147.068,251.923 147.000,251.792 146.787 C 251.660 146.574,250.653 146.400,249.553 146.400 C 248.165 146.400,247.639 146.261,247.833 145.947 C 248.036 145.618,247.495 145.571,245.856 145.776 C 244.476 145.948,243.600 145.907,243.600 145.671 C 243.600 145.142,240.445 144.877,240.253 145.390 C 240.156 145.649,239.905 145.616,239.570 145.300 C 239.278 145.025,238.523 144.800,237.891 144.800 C 236.060 144.800,234.709 142.598,236.038 141.777 C 236.278 141.628,236.394 141.083,236.295 140.565 C 236.190 140.013,236.278 139.724,236.508 139.867 C 236.748 140.015,236.834 139.543,236.730 138.655 C 236.637 137.855,236.724 137.200,236.923 137.200 C 237.122 137.200,237.173 136.907,237.036 136.549 C 236.899 136.191,236.955 135.695,237.161 135.447 C 238.405 133.948,237.654 117.989,236.299 117.129 C 235.916 116.886,235.913 116.811,236.287 116.806 C 236.849 116.799,236.523 115.681,235.722 114.871 C 235.435 114.581,235.200 113.816,235.200 113.171 C 235.200 112.374,235.000 112.000,234.573 112.000 C 234.128 112.000,234.020 111.768,234.200 111.200 C 234.366 110.677,234.271 110.398,233.927 110.394 C 233.504 110.389,233.501 110.324,233.911 110.064 C 234.298 109.818,234.185 109.485,233.446 108.688 C 232.910 108.109,232.351 107.088,232.204 106.418 C 232.057 105.748,231.801 105.200,231.636 105.200 C 231.470 105.200,231.088 104.705,230.786 104.100 C 230.242 103.008,229.766 102.392,227.871 100.324 C 227.329 99.733,227.001 99.119,227.142 98.960 C 227.284 98.802,227.198 98.787,226.952 98.928 C 226.428 99.226,224.685 97.848,225.083 97.450 C 225.231 97.302,224.958 96.906,224.476 96.568 C 223.994 96.231,223.600 95.695,223.600 95.377 C 223.600 95.060,223.285 94.797,222.900 94.794 C 222.426 94.790,222.355 94.689,222.679 94.483 C 223.250 94.120,222.873 93.442,221.900 93.083 C 221.515 92.941,221.200 92.583,221.200 92.288 C 221.200 91.992,220.655 91.348,219.989 90.855 C 219.323 90.363,218.875 89.802,218.994 89.610 C 219.112 89.418,218.665 88.874,218.000 88.400 C 217.335 87.926,216.894 87.371,217.021 87.166 C 217.148 86.961,216.835 86.626,216.326 86.422 C 215.817 86.218,215.542 86.039,215.716 86.025 C 216.025 86.000,215.674 85.488,214.325 83.996 C 213.848 83.469,213.789 83.193,214.125 83.057 C 214.386 82.950,214.279 82.849,213.887 82.832 C 213.494 82.814,212.819 82.201,212.387 81.468 C 211.219 79.488,209.320 78.687,207.400 79.366 M236.790 84.626 C 236.576 85.190,236.387 85.955,236.372 86.326 C 236.349 86.873,236.279 86.849,236.000 86.200 C 235.663 85.417,235.419 86.907,235.475 89.400 C 235.485 89.840,235.310 90.318,235.086 90.461 C 234.862 90.605,234.523 91.856,234.334 93.241 C 234.144 94.626,233.786 95.885,233.537 96.039 C 233.256 96.213,233.168 96.943,233.304 97.960 C 233.425 98.862,233.361 99.600,233.162 99.600 C 232.754 99.600,232.680 100.823,233.033 101.742 C 233.161 102.076,233.483 102.266,233.747 102.165 C 234.040 102.052,234.522 102.846,234.983 104.202 C 235.483 105.673,235.848 106.251,236.063 105.912 C 236.286 105.560,236.390 105.674,236.394 106.280 C 236.397 106.764,236.715 107.344,237.100 107.568 C 237.485 107.792,237.579 107.981,237.309 107.988 C 236.739 108.002,237.263 109.465,238.480 111.262 C 238.876 111.846,239.200 112.701,239.200 113.162 C 239.200 113.623,239.363 114.000,239.563 114.000 C 239.762 114.000,239.824 114.388,239.700 114.863 C 239.551 115.430,239.624 115.632,239.913 115.454 C 240.217 115.266,240.279 115.636,240.114 116.653 C 239.952 117.652,240.013 118.039,240.305 117.859 C 240.588 117.684,240.819 118.519,240.980 120.296 C 241.114 121.783,241.400 124.320,241.615 125.934 C 241.829 127.548,241.929 128.991,241.836 129.142 C 241.743 129.293,241.446 131.617,241.177 134.308 C 240.907 136.999,240.553 139.200,240.390 139.200 C 240.227 139.200,239.999 139.560,239.884 140.001 C 239.751 140.510,239.831 140.704,240.105 140.535 C 240.371 140.370,240.445 140.506,240.298 140.889 C 240.121 141.350,240.258 141.458,240.830 141.308 C 241.282 141.190,241.600 141.310,241.600 141.599 C 241.600 141.963,242.175 142.020,243.800 141.817 C 245.139 141.650,246.000 141.694,246.000 141.929 C 246.000 142.459,249.150 142.722,249.366 142.210 C 249.480 141.940,249.652 141.951,249.870 142.243 C 250.051 142.486,251.415 142.780,252.900 142.897 L 255.600 143.108 255.606 142.054 C 255.611 141.199,255.693 141.113,256.038 141.600 C 256.352 142.041,256.410 141.590,256.260 139.894 C 256.148 138.625,256.205 137.679,256.386 137.792 C 256.568 137.904,256.712 135.570,256.707 132.606 C 256.701 129.642,256.564 127.299,256.401 127.399 C 256.239 127.500,256.163 126.591,256.233 125.380 C 256.307 124.091,256.205 123.273,255.988 123.408 C 255.783 123.534,255.499 122.909,255.357 122.019 C 255.214 121.128,254.949 120.400,254.768 120.400 C 254.586 120.400,254.506 119.862,254.589 119.203 C 254.692 118.389,254.527 117.880,254.070 117.611 C 253.483 117.264,253.474 117.165,254.000 116.813 C 254.358 116.574,254.409 116.410,254.127 116.406 C 253.674 116.400,253.175 115.403,253.241 114.636 C 253.258 114.436,253.002 114.121,252.673 113.937 C 252.318 113.738,252.160 113.276,252.284 112.801 C 252.401 112.353,252.297 112.000,252.047 112.000 C 251.801 112.000,251.600 111.809,251.600 111.576 C 251.600 111.343,251.778 111.263,251.995 111.397 C 252.222 111.537,252.289 111.377,252.154 111.023 C 252.023 110.683,251.755 110.504,251.558 110.626 C 251.361 110.748,251.200 110.399,251.200 109.852 C 251.200 109.305,250.975 108.619,250.700 108.329 C 250.425 108.038,250.182 107.575,250.160 107.300 C 250.138 107.025,250.093 106.429,250.060 105.976 C 250.027 105.523,249.820 105.264,249.600 105.400 C 249.380 105.536,249.200 105.364,249.200 105.017 C 249.200 104.048,248.241 101.200,247.915 101.200 C 247.756 101.200,247.729 100.930,247.855 100.600 C 247.982 100.270,247.892 100.000,247.655 100.000 C 247.419 100.000,247.329 99.730,247.455 99.400 C 247.582 99.070,247.515 98.800,247.306 98.800 C 247.098 98.800,246.706 97.765,246.435 96.500 C 245.702 93.076,245.582 92.764,245.108 93.057 C 244.826 93.231,244.752 93.028,244.896 92.477 C 245.022 91.993,244.878 91.430,244.559 91.166 C 244.251 90.911,244.000 90.287,244.000 89.780 C 244.000 89.272,243.717 88.574,243.371 88.229 C 242.899 87.756,242.874 87.597,243.271 87.587 C 243.628 87.579,243.572 87.402,243.100 87.043 C 242.715 86.751,242.394 86.172,242.387 85.756 C 242.348 83.435,237.607 82.478,236.790 84.626 M267.200 162.527 C 267.200 162.729,267.635 162.810,268.166 162.709 C 268.873 162.573,269.261 162.766,269.616 163.430 C 269.922 164.002,270.328 164.249,270.716 164.100 C 271.137 163.939,271.234 164.022,271.023 164.363 C 270.838 164.662,271.051 165.174,271.557 165.646 C 272.201 166.246,272.400 166.912,272.400 168.469 C 272.400 170.986,273.145 173.600,273.863 173.600 C 274.212 173.600,274.400 174.099,274.400 175.024 C 274.400 175.860,274.237 176.346,274.005 176.203 C 273.769 176.057,273.716 176.238,273.874 176.649 C 274.077 177.178,273.982 177.279,273.469 177.082 C 273.101 176.941,272.800 176.999,272.800 177.213 C 272.800 177.426,272.170 177.600,271.400 177.600 C 270.630 177.600,270.000 177.400,270.000 177.156 C 270.000 176.885,269.457 176.776,268.600 176.876 C 267.830 176.966,267.200 176.916,267.200 176.766 C 267.200 176.270,265.676 176.084,265.234 176.526 C 264.922 176.838,264.800 176.825,264.800 176.480 C 264.800 176.216,264.395 175.997,263.900 175.994 C 263.020 175.988,261.410 175.230,262.200 175.194 C 262.420 175.184,262.240 174.967,261.800 174.712 C 261.360 174.457,260.971 174.327,260.936 174.424 C 260.901 174.521,260.490 174.114,260.023 173.520 C 258.915 172.111,258.255 167.288,259.061 166.482 C 259.357 166.186,259.600 165.698,259.600 165.398 C 259.600 165.099,259.963 164.739,260.406 164.598 C 260.849 164.457,261.116 164.188,261.000 164.000 C 260.884 163.812,261.151 163.543,261.594 163.402 C 262.037 163.261,262.400 162.995,262.400 162.810 C 262.400 162.626,262.760 162.569,263.200 162.684 C 263.640 162.799,264.001 162.737,264.001 162.547 C 264.002 162.356,264.722 162.191,265.601 162.181 C 266.481 162.170,267.200 162.326,267.200 162.527 M170.505 189.082 C 170.014 189.177,169.114 189.179,168.505 189.087 C 167.897 188.995,168.300 188.917,169.400 188.914 C 170.500 188.911,170.997 188.987,170.505 189.082 M153.824 232.587 C 154.410 233.031,154.453 233.175,154.000 233.175 C 153.670 233.175,153.051 232.910,152.624 232.587 C 152.037 232.144,151.994 232.000,152.447 232.000 C 152.777 232.000,153.396 232.264,153.824 232.587 M240.766 312.233 C 241.292 312.759,240.346 312.719,239.360 312.172 L 238.200 311.531 239.399 311.798 C 240.059 311.945,240.674 312.140,240.766 312.233 " stroke="none" fill="#fcfcfc" fill-rule="evenodd"></path><path id="path1" d="M204.267 88.667 C 203.852 89.082,203.953 90.400,204.400 90.400 C 204.620 90.400,204.800 89.950,204.800 89.400 C 204.800 88.353,204.708 88.226,204.267 88.667 M203.600 93.224 C 203.600 93.677,203.780 93.936,204.000 93.800 C 204.220 93.664,204.400 93.293,204.400 92.976 C 204.400 92.659,204.220 92.400,204.000 92.400 C 203.780 92.400,203.600 92.771,203.600 93.224 M225.086 97.448 C 224.950 97.584,225.108 97.965,225.438 98.295 C 226.149 99.006,226.521 98.782,226.167 97.857 C 225.904 97.173,225.510 97.024,225.086 97.448 M256.406 132.300 C 256.403 133.015,256.469 133.600,256.553 133.600 C 256.917 133.600,257.072 132.041,256.757 131.544 C 256.523 131.174,256.410 131.416,256.406 132.300 M244.200 142.000 C 244.336 142.220,244.797 142.400,245.224 142.400 C 245.651 142.400,246.000 142.220,246.000 142.000 C 246.000 141.780,245.539 141.600,244.976 141.600 C 244.396 141.600,244.060 141.773,244.200 142.000 M243.600 145.598 C 243.600 145.814,244.041 145.955,244.581 145.910 C 245.685 145.818,245.583 145.508,244.390 145.326 C 243.955 145.259,243.600 145.382,243.600 145.598 M259.400 147.600 C 259.536 147.820,260.187 148.000,260.847 148.000 C 261.545 148.000,261.944 147.833,261.800 147.600 C 261.664 147.380,261.013 147.200,260.353 147.200 C 259.655 147.200,259.256 147.367,259.400 147.600 M283.275 158.825 C 283.371 159.114,283.686 159.429,283.975 159.525 C 284.275 159.625,284.425 159.475,284.325 159.175 C 284.229 158.886,283.914 158.571,283.625 158.475 C 283.325 158.375,283.175 158.525,283.275 158.825 M220.509 164.000 C 220.509 164.990,220.587 165.395,220.682 164.900 C 220.778 164.405,220.778 163.595,220.682 163.100 C 220.587 162.605,220.509 163.010,220.509 164.000 M218.188 179.220 C 217.807 179.835,218.328 180.232,218.842 179.718 C 219.129 179.431,219.136 179.207,218.862 179.039 C 218.639 178.900,218.335 178.982,218.188 179.220 M160.600 188.400 C 160.464 188.620,160.723 188.800,161.176 188.800 C 161.629 188.800,162.000 188.620,162.000 188.400 C 162.000 188.180,161.741 188.000,161.424 188.000 C 161.107 188.000,160.736 188.180,160.600 188.400 M168.505 189.087 C 169.114 189.179,170.014 189.177,170.505 189.082 C 170.997 188.987,170.500 188.911,169.400 188.914 C 168.300 188.917,167.897 188.995,168.505 189.087 M203.200 191.061 C 202.649 191.352,202.469 191.588,202.800 191.588 C 203.490 191.588,204.670 190.920,204.388 190.689 C 204.285 190.604,203.750 190.771,203.200 191.061 M245.200 212.800 C 245.200 213.020,244.630 213.200,243.933 213.200 C 242.299 213.200,242.577 213.422,244.600 213.732 C 245.690 213.899,246.009 213.855,245.600 213.595 C 245.201 213.340,245.168 213.210,245.500 213.206 C 245.775 213.203,246.000 213.020,246.000 212.800 C 246.000 212.580,245.820 212.400,245.600 212.400 C 245.380 212.400,245.200 212.580,245.200 212.800 M260.200 213.600 C 260.336 213.820,260.717 214.000,261.047 214.000 C 261.377 214.000,261.536 213.820,261.400 213.600 C 261.264 213.380,260.883 213.200,260.553 213.200 C 260.223 213.200,260.064 213.380,260.200 213.600 M106.988 219.220 C 106.607 219.835,107.128 220.232,107.642 219.718 C 107.929 219.431,107.936 219.207,107.662 219.039 C 107.439 218.900,107.135 218.982,106.988 219.220 M105.400 222.000 C 105.002 222.440,104.878 222.800,105.124 222.800 C 105.370 222.800,105.765 222.440,106.000 222.000 C 106.235 221.560,106.360 221.200,106.276 221.200 C 106.192 221.200,105.798 221.560,105.400 222.000 M269.600 222.353 C 269.600 222.793,269.780 223.264,270.000 223.400 C 270.220 223.536,270.400 223.287,270.400 222.847 C 270.400 222.407,270.220 221.936,270.000 221.800 C 269.780 221.664,269.600 221.913,269.600 222.353 M143.100 226.282 C 143.595 226.378,144.405 226.378,144.900 226.282 C 145.395 226.187,144.990 226.109,144.000 226.109 C 143.010 226.109,142.605 226.187,143.100 226.282 M143.366 230.017 C 144.053 230.223,144.792 230.214,145.166 229.995 C 145.619 229.730,145.288 229.631,144.000 229.647 C 142.338 229.667,142.290 229.696,143.366 230.017 M152.624 232.587 C 153.051 232.910,153.670 233.175,154.000 233.175 C 154.453 233.175,154.410 233.031,153.824 232.587 C 153.396 232.264,152.777 232.000,152.447 232.000 C 151.994 232.000,152.037 232.144,152.624 232.587 M269.600 233.000 C 269.600 233.330,269.780 233.600,270.000 233.600 C 270.220 233.600,270.400 233.330,270.400 233.000 C 270.400 232.670,270.220 232.400,270.000 232.400 C 269.780 232.400,269.600 232.670,269.600 233.000 M93.219 271.000 C 93.209 271.594,93.923 272.610,94.174 272.359 C 94.294 272.240,94.129 271.795,93.809 271.371 C 93.488 270.947,93.222 270.780,93.219 271.000 M253.867 274.667 C 253.381 275.153,253.590 275.579,254.200 275.345 C 254.530 275.218,254.800 274.954,254.800 274.757 C 254.800 274.338,254.249 274.284,253.867 274.667 M246.892 293.275 C 247.091 293.873,248.000 294.202,248.000 293.676 C 248.000 293.461,247.715 293.176,247.367 293.043 C 246.977 292.893,246.794 292.982,246.892 293.275 M169.467 293.467 C 168.981 293.953,169.190 294.379,169.800 294.145 C 170.130 294.018,170.400 293.754,170.400 293.557 C 170.400 293.138,169.849 293.084,169.467 293.467 M160.012 299.984 C 159.688 300.189,159.557 300.491,159.721 300.654 C 159.885 300.818,160.323 300.648,160.695 300.276 C 161.418 299.553,160.985 299.369,160.012 299.984 M163.279 301.413 C 163.688 301.821,165.200 301.951,165.200 301.577 C 165.200 301.370,164.720 301.200,164.133 301.200 C 163.547 301.200,163.162 301.296,163.279 301.413 M169.862 301.900 C 169.760 302.065,170.108 302.226,170.636 302.258 C 171.163 302.289,171.495 302.154,171.374 301.958 C 171.105 301.523,170.118 301.485,169.862 301.900 M186.963 303.260 C 186.789 303.542,186.851 303.616,187.122 303.448 C 187.367 303.297,187.927 303.397,188.366 303.671 C 189.034 304.089,190.083 303.901,189.567 303.456 C 189.032 302.995,187.211 302.858,186.963 303.260 M214.412 303.584 C 214.088 303.789,213.957 304.091,214.121 304.254 C 214.285 304.418,214.723 304.248,215.095 303.876 C 215.818 303.153,215.385 302.969,214.412 303.584 M239.360 312.172 C 239.997 312.525,240.612 312.721,240.726 312.607 C 241.042 312.291,240.713 312.091,239.399 311.798 L 238.200 311.531 239.360 312.172 M141.400 318.000 C 141.536 318.220,142.222 318.387,142.924 318.372 C 144.000 318.348,144.074 318.290,143.400 318.000 C 142.284 317.520,141.104 317.520,141.400 318.000 M156.137 318.698 C 156.284 318.936,156.179 319.211,155.902 319.308 C 155.626 319.405,155.898 319.488,156.507 319.492 C 157.116 319.496,157.712 319.343,157.831 319.150 C 157.950 318.957,157.871 318.800,157.656 318.800 C 157.441 318.800,156.951 318.679,156.567 318.532 C 156.116 318.359,155.964 318.418,156.137 318.698 M172.400 320.000 C 173.176 320.501,173.600 320.501,173.600 320.000 C 173.600 319.780,173.195 319.603,172.700 319.606 C 171.972 319.611,171.915 319.686,172.400 320.000 " stroke="none" fill="#f4f4f4" fill-rule="evenodd"></path><path id="path2" d="M248.000 146.000 C 248.000 146.220,248.270 146.400,248.600 146.400 C 248.930 146.400,249.200 146.220,249.200 146.000 C 249.200 145.780,248.930 145.600,248.600 145.600 C 248.270 145.600,248.000 145.780,248.000 146.000 M220.509 160.800 C 220.509 161.790,220.587 162.195,220.682 161.700 C 220.778 161.205,220.778 160.395,220.682 159.900 C 220.587 159.405,220.509 159.810,220.509 160.800 M187.000 303.600 C 186.864 303.820,187.134 304.000,187.600 304.000 C 188.066 304.000,188.336 303.820,188.200 303.600 C 188.064 303.380,187.794 303.200,187.600 303.200 C 187.406 303.200,187.136 303.380,187.000 303.600 M187.200 321.200 C 187.976 321.701,188.400 321.701,188.400 321.200 C 188.400 320.980,187.995 320.803,187.500 320.806 C 186.772 320.811,186.715 320.886,187.200 321.200 " stroke="none" fill="#ececec" fill-rule="evenodd"></path><path id="path3" d="" stroke="none" fill="#f8fc100" fill-rule="evenodd"></path><path id="path4" d="" stroke="none" fill="#f8fc100" fill-rule="evenodd"></path></g></svg>