<?xml version="1.0" standalone="no"?>
<!DOCTYPE svg PUBLIC "-//W3C//DTD SVG 20010904//EN"
 "http://www.w3.org/TR/2001/REC-SVG-20010904/DTD/svg10.dtd">
<svg version="1.0" xmlns="http://www.w3.org/2000/svg"
 width="822.000000pt" height="822.000000pt" viewBox="0 0 822.000000 822.000000"
 preserveAspectRatio="xMidYMid meet">

<g transform="translate(0.000000,822.000000) scale(0.100000,-0.100000)"
fill="#000000" stroke="none">
<path d="M0 4115 l0 -4105 4105 0 4105 0 0 4105 0 4105 -4105 0 -4105 0 0
-4105z m4312 2486 c13 -5 57 -51 98 -102 41 -52 77 -96 80 -99 14 -11 208
-248 243 -296 52 -72 112 -205 139 -304 29 -113 31 -322 4 -420 -32 -112 -32
-117 1 -124 15 -3 181 -24 368 -46 518 -63 479 -35 750 -535 64 -117 128 -231
134 -235 19 -15 129 -169 136 -188 5 -18 -2 -37 -29 -78 -39 -59 -39 -59 -84
-43 -23 8 -35 23 -51 60 -15 34 -27 49 -40 49 -28 0 -32 -23 -15 -75 16 -47
50 -81 91 -91 12 -4 23 -10 23 -15 0 -17 -98 -144 -127 -165 -75 -56 -133 -73
-315 -95 -198 -23 -239 -16 -662 116 -50 16 -106 42 -129 59 -49 38 -115 162
-148 280 -24 89 -39 112 -64 102 -14 -5 -16 -14 -11 -47 19 -117 108 -310 170
-367 54 -49 90 -63 467 -177 48 -14 112 -29 145 -33 56 -7 58 -8 67 -42 15
-58 1 -372 -22 -478 -59 -278 -176 -506 -375 -736 -70 -81 -86 -107 -92 -141
-13 -89 19 -150 109 -208 198 -128 285 -187 302 -207 14 -16 20 -36 20 -71 0
-42 -5 -53 -33 -81 l-32 -33 -231 -3 -230 -3 -52 34 c-29 19 -87 57 -130 86
-43 28 -81 51 -83 51 -3 0 -37 22 -77 48 -40 27 -79 51 -89 55 -9 3 -58 -10
-109 -29 -113 -42 -199 -63 -296 -71 -65 -5 -76 -4 -96 14 -50 46 -73 50 -444
79 -200 16 -363 32 -363 35 0 4 16 13 36 19 57 19 208 125 260 183 176 194
251 458 199 701 -54 256 -236 476 -471 570 -202 81 -447 74 -634 -18 -124 -61
-208 -130 -197 -160 10 -26 36 -19 90 24 210 168 522 198 768 75 176 -88 295
-228 367 -430 34 -96 42 -272 17 -377 -36 -153 -134 -311 -255 -411 -101 -83
-289 -157 -401 -157 -60 0 -79 -7 -79 -31 0 -29 30 -36 205 -49 266 -19 542
-40 695 -55 142 -13 146 -14 173 -45 39 -44 37 -100 -8 -190 -30 -59 -39 -70
-60 -70 -14 0 -200 11 -413 25 -213 14 -459 29 -547 35 -183 11 -216 19 -425
94 -188 68 -284 122 -371 208 -84 83 -140 178 -183 310 -139 424 -107 873 86
1238 114 215 275 404 463 543 102 76 311 184 430 222 171 54 266 68 470 69
166 1 218 -3 415 -32 264 -40 310 -38 415 12 123 59 212 176 234 306 16 95 23
459 11 520 -17 79 -54 149 -150 280 -136 187 -191 318 -209 497 -11 103 -4
191 33 453 23 160 27 177 51 198 29 25 34 26 67 13z m652 -103 c14 -13 32 -41
39 -63 57 -161 134 -376 187 -519 34 -93 68 -200 76 -239 25 -121 15 -383 -16
-402 -9 -6 -320 31 -327 39 -2 2 4 32 13 67 25 91 25 297 0 403 -29 126 -56
191 -133 324 -29 49 -28 71 13 237 31 128 41 150 67 163 34 16 54 14 81 -10z"/>
<path d="M5400 4862 c-99 -49 -105 -179 -11 -235 34 -20 186 -50 213 -41 27 8
30 36 8 79 -11 22 -20 58 -20 80 0 73 -61 135 -133 135 -12 0 -38 -8 -57 -18z"/>
</g>
</svg>
